<svg xmlns="http://www.w3.org/2000/svg" enable-background="new 0 0 72 72" viewBox="0 0 72 72" id="whatsapp"><switch><g fill="#fafafa" class="color000000 svgShape"><path d="M68,36c0,17.7-14.3,32-32,32c-6.3,0-12.1-1.8-17.1-5L4,68l5.4-14.3C6,48.6,4,42.6,4,36C4,18.3,18.3,4,36,4S68,18.3,68,36z
			 M36,8C20.5,8,8,20.5,8,36c0,6.4,2.2,12.4,5.9,17.1l-3.2,8.5l8.8-2.9C24.2,62,29.8,64,36,64c15.5,0,28-12.5,28-28S51.5,8,36,8z
			 M52,44.8c0,0,0,2.1,0,2.6c0,0.5-0.6,1.4-0.6,1.4c-1.7,2.7-5.8,3.1-6.7,3.2C39.4,52.3,34,48.1,29,43c-5.1-5-9.3-10.5-8.9-15.8
			c0.1-0.9,0.5-4.9,3.2-6.7c0,0,0.9-0.6,1.4-0.6c0.5,0,2.6,0,2.6,0s0.7,0.1,1,0.9c0.3,0.7,2.5,6,2.7,6.4c0.2,0.4,0.6,1.4-0.1,2.3
			c-0.7,0.9-2.1,2.6-2.1,2.6s-0.6,0.5-0.1,1.3c0.5,0.8,2.2,3.5,4.4,5.5c2,2.2,4.7,3.9,5.5,4.4c0.8,0.5,1.3-0.1,1.3-0.1
			s1.7-1.4,2.6-2.1c0.9-0.7,1.9-0.3,2.3-0.1c0.4,0.2,5.6,2.4,6.4,2.7C51.9,44.1,52,44.8,52,44.8z" fill="#fafafa" class="color000000 svgShape"></path></g></switch></svg>