<svg xmlns="http://www.w3.org/2000/svg" enable-background="new 0 0 64 64" viewBox="0 0 64 64" id="Design"><path d="M6.21 25.51C6.21 25.51 6.21 25.51 6.21 25.51c.04.09.09.18.17.24.04.04.09.06.14.09.1.05.2.09.32.09h31.1.12l.11-.01c.12-.01.22-.06.27-.11l.07-.05.11-.12c.08-.11.13-.25.13-.39V4.85c0-.38-.31-.69-.69-.69H6.84c-.39 0-.69.3-.69.69v20.38c0 .01 0 .01 0 .02 0 .01-.01.02 0 .03C6.16 25.36 6.18 25.43 6.21 25.51zM37.37 5.54v17.66l-4.44-5.86-.28-.38-.07-.08-3.84-5.07c-.12-.17-.32-.27-.55-.27 0 0 0 0 0 0-.22 0-.43.11-.55.29l-3.77 5.3c-.03.04-.06.08-.05.08l-2.63 3.69-5.06-6c-.13-.15-.32-.24-.55-.25-.18 0-.36.09-.49.23l-7.57 8.54V5.54H37.37zM20.29 24.55l1.49-2.1.07-.1c0-.01.01-.01.01-.02l3.07-4.32h6.8l4.95 6.54H20.29zM20.37 22.06l-1.77 2.49H8.36l7.23-8.16L20.37 22.06zM57.16 4.36h-15.8c-.27 0-.49.22-.49.49v20.39c0 .27.22.49.49.49h15.8c.27 0 .49-.22.49-.49V4.85C57.65 4.57 57.43 4.36 57.16 4.36zM44.81 16.42h9.06c.27 0 .49.22.49.49 0 .27-.22.49-.49.49h-9.06c-.27 0-.49-.22-.49-.49C44.32 16.64 44.54 16.42 44.81 16.42zM44.32 12.88c0-.27.22-.49.49-.49h9.06c.27 0 .49.22.49.49 0 .27-.22.49-.49.49h-9.06C44.54 13.37 44.32 13.14 44.32 12.88zM44.81 20.46h9.06c.27 0 .49.23.49.49 0 .27-.22.49-.49.49h-9.06c-.27 0-.49-.22-.49-.49C44.32 20.68 44.54 20.46 44.81 20.46zM53.87 9.34h-9.06c-.27 0-.49-.23-.49-.49 0-.27.22-.49.49-.49h9.06c.27 0 .49.22.49.49C54.36 9.11 54.14 9.34 53.87 9.34zM22.92 27.7H6.84c-.27 0-.49.22-.49.49v10.99c0 .27.22.49.49.49h16.08c.27 0 .49-.22.49-.49V28.19C23.41 27.92 23.19 27.7 22.92 27.7zM57.16 27.7H25.83c-.27 0-.49.22-.49.49v10.99c0 .27.22.49.49.49h31.33c.27 0 .49-.22.49-.49V28.19C57.65 27.92 57.43 27.7 57.16 27.7zM52.4 34.18H34.23c-.27 0-.49-.22-.49-.49 0-.27.22-.49.49-.49H52.4c.27 0 .49.22.49.49C52.89 33.96 52.67 34.18 52.4 34.18z" fill="#fafafa" class="color000000 svgShape"></path><circle cx="12.42" cy="10.06" r="2.37" fill="#fafafa" class="color000000 svgShape"></circle><path d="M60.53,0H3.47C1.61,0,0.09,1.52,0.09,3.4v45.48c0,1.87,1.52,3.39,3.39,3.39h21.6l-1.75,7.15h-1.41
		c-2.26,0-4.1,1.85-4.1,4.1c0,0.27,0.23,0.49,0.49,0.49h27.17c0.27,0,0.49-0.22,0.49-0.49c0-2.26-1.85-4.1-4.1-4.1h-1.41l-1.75-7.15
		h21.83c1.87,0,3.39-1.52,3.39-3.39V3.4C63.91,1.52,62.39,0,60.53,0z M24.74,59.41l1.75-7.15h10.79l1.75,7.15H24.74z M34.16,47.42
		c0,1.2-0.97,2.16-2.16,2.16c-1.19,0-2.16-0.96-2.16-2.16c0-1.19,0.97-2.16,2.16-2.16C33.19,45.26,34.16,46.23,34.16,47.42z
		 M1.46,42.86V3.4c0-1.11,0.9-2.02,2.01-2.02h57.05c1.11,0,2.01,0.91,2.01,2.02v39.46H1.46z" fill="#fafafa" class="color000000 svgShape"></path><circle cx="32" cy="47.42" r="1.18" fill="#fafafa" class="color000000 svgShape"></circle></svg>